<svg width="220" height="250" viewBox="0 0 220 250" fill="none" xmlns="http://www.w3.org/2000/svg">
<path d="M210 120.861C210 173.498 167.329 216.171 114.691 216.171C62.055 216.171 19.384 173.498 19.384 120.861C19.384 68.224 62.055 25.552 114.691 25.552C167.329 25.551 210 68.224 210 120.861Z" fill="#F0F3FB"/>
<path d="M61.332 177.936C61.332 192.115 49.84 203.604 35.665 203.604C21.49 203.604 10 192.114 10 177.936C10 163.759 21.491 152.27 35.665 152.27C49.839 152.271 61.332 163.76 61.332 177.936Z" fill="#009933"/>
<path d="M179.527 30.752C174.082 30.752 169.652 26.321 169.652 20.876C169.652 15.43 174.082 11.001 179.527 11.001C184.972 11.001 189.402 15.431 189.402 20.876C189.404 26.321 184.973 30.752 179.527 30.752ZM179.527 14.379C175.943 14.379 173.029 17.292 173.029 20.876C173.029 24.459 175.943 27.374 179.527 27.374C183.109 27.374 186.025 24.459 186.025 20.876C186.027 17.292 183.111 14.379 179.527 14.379Z" fill="#EA1C30"/>
<path d="M138.462 146.805C138.462 146.805 132.154 144.69 131.372 150.962" stroke="#BDBDBD" stroke-width="1.016" stroke-miterlimit="10"/>
<path d="M144.083 138.535C144.083 138.535 147.876 148.387 141.361 150.691L139.353 151.39C139.353 151.39 136.986 150.532 138.459 146.114C138.459 146.114 139.679 143.509 138.466 139.546L144.083 138.535Z" fill="white"/>
<path d="M121.37 173.128L150.869 181.932L157.337 155.278L123.525 146.057L121.37 173.128Z" fill="#BDBDBD"/>
<path d="M112.288 159.922C112.288 159.922 110.475 170.089 102.813 192.461L95.513 216.563C95.513 216.563 90.603 218.421 88.08 213.776C88.08 213.776 87.183 191.356 93.762 182.985L94.451 141.844C94.451 141.844 105.334 149.143 127.762 138.924C127.762 138.924 132.938 149.01 131.08 181.923C131.08 181.923 128.559 221.075 127.23 226.914C127.23 226.914 121.258 223.993 117.675 228.241L119.267 190.681C119.268 190.684 119.723 167.619 112.288 159.922Z" fill="#003CC2"/>
<path d="M117.997 237.781L136.764 238.047C136.764 238.047 138.358 234.198 132.649 231.545C132.649 231.545 126.968 229.555 127.233 226.106C127.233 226.106 120.731 223.848 117.678 227.432C117.675 227.432 115.342 238.047 117.997 237.781Z" fill="#10244D"/>
<path d="M95.663 215.445C95.663 215.445 95.784 222.478 96.636 225.002C96.636 225.002 99.071 235.352 94.691 235.884C94.691 235.884 85.565 232.962 87.025 220.358C87.025 220.358 87.39 218.233 86.902 215.977C86.902 215.977 86.172 212.395 88.241 210.936C88.241 210.936 88.241 213.854 90.309 214.783C90.31 214.782 93.837 217.438 95.663 215.445Z" fill="#10244D"/>
<path d="M126.303 69.614C126.303 69.614 131.214 71.87 130.686 73.728L139.823 79.169C139.823 79.169 143.291 81.956 142.496 85.936L143.556 112.081L145.921 142.409L135.593 139.98L132.011 111.686L126.303 69.614Z" fill="#10244D"/>
<path d="M112.396 70.711L129.248 77.082L128.5 143.557L93.364 146.998L103.694 86.234L112.396 70.711Z" fill="#BDBDBD"/>
<path d="M125.109 68.056L125.908 75.965L120.861 87.62L113.959 75.887L113.296 63.809L125.109 68.056Z" fill="white"/>
<path d="M129.585 165.173L127.762 138.926L124.975 125.921C124.975 125.921 125.059 108.517 125.454 101.103C125.454 101.103 125.325 85.28 125.059 76.919L125.268 71.192L128.028 70.428C128.028 70.428 132.768 71.045 131.887 79.208L130.815 118.09L130.949 128.707C130.949 128.707 132.522 137.487 134.645 141.731L136.958 166.211L129.585 165.173Z" fill="#10244D"/>
<path d="M86.755 137.068C86.755 137.068 85.465 153.017 86.261 166.021L97.541 168.279C97.541 168.279 103.874 151.664 101.75 139.589C101.75 139.589 102.149 129.768 103.609 122.47C103.609 122.47 115.569 94.335 112.252 78.674C112.252 78.674 115.114 76.048 113.572 68.692C113.572 68.692 104.451 70.824 102.391 72.296L93.445 74.65L78.922 113.314L86.755 137.068ZM90.02 112.161L93.666 99.401L91.843 123.097L90.02 112.161Z" fill="#10244D"/>
<path d="M93.868 135.859L87.993 138.489L89.007 140.515C89.007 140.518 94.272 140.314 93.868 135.859Z" fill="white"/>
<path d="M128.691 50.54C128.691 50.54 134.093 63.421 127.988 71.118C127.988 71.118 125.717 73.591 119.312 68.693L113.298 63.81C113.298 63.81 110.19 63.102 112.501 53.724C112.5 53.724 114.359 43.904 128.691 50.54Z" fill="white"/>
<path d="M120.282 50.606C120.282 50.606 129.306 51.269 129.837 50.075C129.837 50.075 130.283 46.178 122.454 44.585C122.454 44.585 110.678 44.04 110.443 53.097C110.443 53.097 109.117 58.568 111.57 63.213L113.573 67.882L113.296 63.809C113.296 63.809 111.877 60.016 113.277 59.204C113.277 59.204 114.379 58.174 115.851 59.645C115.851 59.645 116.372 61.879 116.441 62.144L117.939 62.102L117.541 56.443C117.541 56.443 119.882 55.515 119.352 53.258C119.354 53.26 118.891 50.871 120.282 50.606Z" fill="#10244D"/>
<path d="M140.793 147.247C140.793 147.247 148.147 147.443 147.462 158.135" stroke="#BDBDBD" stroke-width="1.016" stroke-miterlimit="10"/>
</svg>
